<?xml version="1.0" encoding="utf-8"?>
<svg xmlns="http://www.w3.org/2000/svg" viewBox="0 0 1918 336.504">
  <g fill="#879ef3">
    <path d="M1918 42.745L1798.725 98.96a146.519 146.519 0 01-62.482 14.009h-521.26a88.845 88.845 0 01-30.994-5.586l-191.7-71.336a50.406 50.406 0 00-39.76 1.965L479.545 184.1a75.322 75.322 0 01-66.927-.342L0 0v336.5h1918s-2.958-293.755 0-293.755z" opacity=".051" />
    <path d="M0 152l119.275 55.235A148.693 148.693 0 00181.757 221h521.26a90.251 90.251 0 0030.994-5.489l191.7-70.093a51.222 51.222 0 0139.76 1.931l472.982 143.546a76.52 76.52 0 0066.927-.336L1918 110v225.5H0S2.958 152 0 152z" opacity=".104" />
  </g>
</svg>