<svg xmlns="http://www.w3.org/2000/svg" xmlns:xlink="http://www.w3.org/1999/xlink" width="1920" height="160" viewBox="0 0 1920 160"><defs><style>.a{fill:#1159a7;}.b{clip-path:url(#a);}.c{fill:url(#b);}.d{fill:none;}.e{fill:rgba(0,181,220,0.08);}.f{fill:url(#c);}</style><clipPath id="a"><rect class="a" width="1920" height="160"/></clipPath><linearGradient id="b" x1="0.454" y1="-0.009" x2="0.5" y2="0.968" gradientUnits="objectBoundingBox"><stop offset="0" stop-color="#121b95"/><stop offset="1" stop-color="#425ad2"/></linearGradient><linearGradient id="c" x1="0.509" y1="-0.491" x2="0.5" y2="1" gradientUnits="objectBoundingBox"><stop offset="0" stop-color="#00b5dc" stop-opacity="0.58"/><stop offset="1" stop-color="#00b5dc" stop-opacity="0.141"/></linearGradient></defs><g class="b"><rect class="c" width="2108.063" height="1168.002" transform="translate(-179.742 -161.611)"/><g transform="translate(-443.25 -140.389)"><rect class="d" width="2415.489" height="875.609"/><g transform="translate(-167.986 49.518)"><path class="e" d="M122.273,222.71l331.388,86.9c36.969,9.695,78.433.593,101.458-22.269L722.827,120.821c26.134-25.949,75.317-33.715,114.275-18.045l223.589,89.936c22.977,9.242,50.537,10.609,75.076,3.725l252.566-70.857a120.42,120.42,0,0,1,66.847.81l564.346,174.317c31.328,9.677,67.65,5.491,93.153-10.738L2543.386,15.891c41.681-26.524,106.891-18.885,134.59,15.765l22.671,28.361c17.01,21.277,15.194,47.692-4.649,67.67L2191.2,635.935c-25.036,25.208-71.962,33.637-110.657,19.88l-225.292-80.1a119.822,119.822,0,0,0-74.595-1.192L1474.93,671.3a120.014,120.014,0,0,1-72.622-.513L935.132,514.945a120.236,120.236,0,0,0-60.237-3.664L630.451,559.063c-21.893,4.279-45.251,2.327-65.177-5.45L45.8,350.891C11.575,337.534-6.26,309.626,2,282.353l4.219-13.926c11.3-37.289,66-58.84,116.051-45.717" transform="translate(0 0)"/><path class="f" d="M2166.294,65.676a110.173,110.173,0,0,0-28.3,8.1L1800.385,223.556c-24.439,10.843-54.744,12.437-81.133,4.267l-239.419-74.118c-27.124-8.4-58.326-6.466-83.036,5.135L1107.168,294.832c-27.136,12.742-61.874,13.734-90.341,2.58L553.5,115.886c-22.877-8.963-50.135-10.185-74.395-3.335L57.045,231.718C26.832,240.249,5.66,260.017,2,283.119l-1.427,9C-4.8,325.941,28.411,356.68,75.49,361.468l476.135,48.419a108.679,108.679,0,0,1,41.18,12.4L868.417,573.966c26.433,14.547,62.09,17.125,92.053,6.658l366.846-128.152c25.7-8.979,55.9-8.439,80.936,1.447l306.671,121.066c39.473,15.583,89.018,7.245,114.658-19.3l230.014-238.108c18.5-19.151,50.266-29.415,82.565-26.68l433.87,36.75c48.844,4.138,92.915-21.243,97.733-56.284L2701.578,69.07c5.809-42.251-47.331-76.4-105.381-67.711Z" transform="translate(49.835 51.733)"/></g></g></g></svg>