<svg xmlns="http://www.w3.org/2000/svg" width="89.433" height="20.85" viewBox="0 0 89.433 20.85"><defs><style>.a{fill:#5ce500;}.b{fill:#fff;}</style></defs><path class="a" d="M16.722,13.973a.677.677,0,0,1-.312.536L12.075,17V7.378L3.715,2.563,8.051.068a.685.685,0,0,1,.624,0L16.722,4.7ZM10.217,8.45l-5.725-3.3a.706.706,0,0,0-.624,0L0,7.378l6.037,3.477V17.81L9.905,15.58a.7.7,0,0,0,.312-.539ZM0,14.333l4.176,2.406V11.923Z" transform="translate(0 0.007)"/><g transform="translate(21.164 4.675)"><path class="b" d="M66.218,13.62H61.66V25.958h2.021V21.117h2.551c2.759,0,4.28-1.348,4.28-3.8,0-1.113-.416-3.7-4.294-3.7m2.242,3.733c0,1.39-.721,1.958-2.492,1.958H63.684V15.443h2.551c1.5,0,2.225.624,2.225,1.91m8.072-.381.152.073-.343,1.823-.236-.073a2,2,0,0,0-.586-.09c-1.889,0-2.041,1.5-2.041,3.324v3.93H71.607V16.9h1.757V17.99a2.415,2.415,0,0,1,1.816-1.206,2.518,2.518,0,0,1,1.352.187m4.6-.256a4,4,0,0,0-3.414,1.622,5.452,5.452,0,0,0-.915,3.105c0,2.863,1.7,4.713,4.329,4.713,3.2,0,4.329-2.575,4.329-4.779a5.074,5.074,0,0,0-1.057-3.241,4.088,4.088,0,0,0-3.272-1.421m0,7.77c-1.466,0-2.374-1.165-2.374-3.04,0-1.9.911-3.074,2.374-3.074s2.391,1.192,2.391,3.04c0,1.9-.915,3.074-2.391,3.074M101.2,16.971l.152.073-.343,1.823-.236-.073a2,2,0,0,0-.582-.09c-1.889,0-2.041,1.5-2.041,3.324v3.93H96.276V16.9h1.757V17.99a2.415,2.415,0,0,1,1.816-1.206,2.51,2.51,0,0,1,1.348.187m6.724,6.082-.035.1a1.993,1.993,0,0,1-2.041,1.348,2.345,2.345,0,0,1-2.416-2.468h6.4l.024-.177a5.531,5.531,0,0,0,.021-.721c0-.059,0-.111,0-.163a4.057,4.057,0,0,0-4.114-4.239,3.907,3.907,0,0,0-3.279,1.573,5.391,5.391,0,0,0-.97,3.157c0,2.8,1.74,4.682,4.332,4.682a3.72,3.72,0,0,0,3.889-2.866l.059-.222h-1.872Zm-4.429-2.644a2.176,2.176,0,0,1,2.239-2.052,2.132,2.132,0,0,1,2.194,2.052Zm-10.63-2.752a3.2,3.2,0,0,0-2.409-.943c-2.748,0-4,2.416-4,4.661,0,2.3,1.237,4.63,4,4.63a3.2,3.2,0,0,0,2.336-.95c-.007.4-.017.78-.028.943a2.023,2.023,0,0,1-2.26,2.19c-.783,0-1.681-.277-1.854-1.057l-.038-.173H86.766l.031.246c.194,1.6,1.594,2.589,3.66,2.589a3.8,3.8,0,0,0,3.726-1.972,6.371,6.371,0,0,0,.454-2.693V16.9H92.866v.759Zm-2.291,6.679c-.655,0-2.177-.3-2.177-3.04,0-1.8.853-2.925,2.225-2.925,1.061,0,2.194.769,2.194,2.925,0,1.9-.839,3.04-2.242,3.04m27.955-1.106c0,1.442-1.2,2.894-3.868,2.894-2.364,0-3.771-1.022-3.958-2.88l-.021-.191h1.844l.028.139c.225,1.116,1.289,1.352,2.142,1.352.936,0,1.934-.3,1.934-1.147,0-.426-.277-.731-.828-.9-.326-.1-.724-.208-1.151-.329-.728-.2-1.483-.416-1.948-.575a2.382,2.382,0,0,1-1.809-2.2c0-1.826,1.778-2.644,3.539-2.644,2.357,0,3.577.887,3.729,2.714l.014.187h-1.816l-.024-.142c-.184-1.05-1.227-1.206-1.833-1.206-.523,0-1.743.094-1.743.963,0,.4.336.686,1.033.887.208.059.516.139.87.229.738.191,1.66.43,2.125.589a2.276,2.276,0,0,1,1.743,2.263m8.647,0c0,1.442-1.2,2.894-3.868,2.894-2.364,0-3.771-1.022-3.958-2.88l-.021-.191h1.844l.028.139c.225,1.116,1.289,1.352,2.142,1.352.936,0,1.934-.3,1.934-1.147,0-.426-.277-.731-.828-.9-.326-.1-.728-.208-1.151-.329-.728-.2-1.483-.416-1.944-.575a2.382,2.382,0,0,1-1.809-2.2c0-1.826,1.778-2.644,3.539-2.644,2.357,0,3.577.887,3.729,2.714l.017.187h-1.816l-.024-.142c-.184-1.05-1.227-1.206-1.833-1.206-.523,0-1.743.094-1.743.963,0,.4.336.686,1.033.887.208.059.516.139.873.229.738.191,1.66.43,2.125.589a2.278,2.278,0,0,1,1.733,2.263" transform="translate(-61.66 -13.62)"/><path class="b" d="M252.555,21.019a1.289,1.289,0,1,1,1.275-1.289,1.266,1.266,0,0,1-1.275,1.289m0-2.36a1.071,1.071,0,1,0,1.043,1.071,1.034,1.034,0,0,0-1.043-1.071m-.149,1.31v.43h-.381V19.043h.634a.452.452,0,0,1,.5.471.4.4,0,0,1-.26.409l.308.471h-.423l-.26-.43h-.118Zm.211-.607h-.211v.3h.211c.114,0,.177-.055.177-.149s-.062-.152-.177-.152" transform="translate(-185.562 -16.769)"/></g></svg>