<svg width="35" height="38" viewBox="0 0 35 38" fill="none" xmlns="http://www.w3.org/2000/svg">
<g clip-path="url(#clip0_3248_129304)">
<path d="M0.878906 28.1818L0.878909 9.39392L10.2728 14.6128V23.0151L17.788 27.2424L25.3031 23.0151V14.6128L34.6971 9.39392V28.1818L17.788 37.5757L0.878906 28.1818Z" fill="#232A36"/>
<path fill-rule="evenodd" clip-rule="evenodd" d="M5.57588 12.0034L0.878906 9.39394L17.788 0L34.6971 9.39394L30.0001 12.0034V25.8333L17.788 32.8788L5.57587 25.8333L5.57588 12.0034ZM29.4913 12.2861L25.3031 14.6128V14.5606L17.788 10.3333L10.2728 14.5606V14.6128L6.08471 12.2861V25.5443L17.788 32.2962L29.4913 25.5443V12.2861Z" fill="url(#paint0_linear_3248_129304)"/>
</g>
<defs>
<linearGradient id="paint0_linear_3248_129304" x1="5.57587" y1="7.30638" x2="30.9395" y2="7.30639" gradientUnits="userSpaceOnUse">
<stop stop-color="#64C2DB"/>
<stop offset="0.307292" stop-color="#7476ED"/>
<stop offset="0.604167" stop-color="#C994DF"/>
<stop offset="1" stop-color="#E56F8C"/>
</linearGradient>
<clipPath id="clip0_3248_129304">
<rect width="35" height="38" fill="white"/>
</clipPath>
</defs>
</svg>
