<svg width="1366" height="326" viewBox="0 0 1366 326" fill="none" xmlns="http://www.w3.org/2000/svg">
<g opacity="0.7">
<mask id="mask0_18085_180602" style="mask-type:luminance" maskUnits="userSpaceOnUse" x="0" y="0" width="1920" height="326">
<path d="M0 326H1920V0H0V326Z" fill="white"/>
</mask>
<g mask="url(#mask0_18085_180602)">
<path d="M353.16 212.482C353.16 212.482 332.924 208.807 286.874 224.749C240.824 240.69 -2.98883 324.901 -2.98883 324.901V-0.5H1920.2V324.112C1920.2 324.112 1479.52 108.652 1436.47 87.9096C1393.42 67.1672 1367.81 68.2417 1319.3 81.2115C1270.78 94.1812 906.69 191.179 876.217 199.027C845.744 206.876 832.989 212.369 802.153 212.412C771.317 212.456 353.16 212.482 353.16 212.482Z" fill="url(#paint0_linear_18085_180602)"/>
<path opacity="0.154" d="M0 35.9532C0 35.9532 240.893 193.18 281.526 221.297C322.159 249.415 351.005 246.251 377.15 246.867C403.295 247.483 796.374 246.867 796.374 246.867C796.374 246.867 828.199 249.331 866.012 238.306C903.825 227.281 1211.31 148.669 1211.31 148.669C1211.31 148.669 1248.75 138.601 1287.14 156.65C1325.53 174.698 1445.29 234.406 1483.91 250.945C1522.54 267.485 1538.35 263.323 1604.82 257.471C1671.28 251.62 1920.27 233.5 1920.27 233.5L1919.94 -1.04575L0.000976562 -0.63324L0 35.9532Z" fill="url(#paint1_linear_18085_180602)"/>
</g>
</g>
<defs>
<linearGradient id="paint0_linear_18085_180602" x1="1002.84" y1="479.396" x2="1001.42" y2="-139.589" gradientUnits="userSpaceOnUse">
<stop stop-color="#6980CC" stop-opacity="0.3"/>
<stop offset="1" stop-color="#80A8E4" stop-opacity="0.6"/>
</linearGradient>
<linearGradient id="paint1_linear_18085_180602" x1="1115.68" y1="196.446" x2="1112.08" y2="-251.189" gradientUnits="userSpaceOnUse">
<stop stop-color="#1274AC" stop-opacity="0.6"/>
<stop offset="1" stop-color="#1274AC" stop-opacity="0.7"/>
</linearGradient>
</defs>
</svg>
