<svg width="1366" height="346" viewBox="0 0 1366 346" fill="none" xmlns="http://www.w3.org/2000/svg">
<g opacity="0.7">
<mask id="mask0_18085_180608" style="mask-type:luminance" maskUnits="userSpaceOnUse" x="-554" y="0" width="1920" height="346">
<path d="M1366 345.861H-554V0.703217H1366V345.861Z" fill="white"/>
</mask>
<g mask="url(#mask0_18085_180608)">
<path d="M1012.84 225.671C1012.84 225.671 1033.08 221.781 1079.13 238.659C1125.18 255.537 1368.99 344.697 1368.99 344.697V0.173737H-554.201V343.862C-554.201 343.862 -113.52 115.74 -70.4699 93.7787C-27.4199 71.8174 -1.81158 72.9551 46.7025 86.687C95.2165 100.419 459.31 203.116 489.783 211.426C520.256 219.737 533.011 225.552 563.847 225.598C594.683 225.644 1012.84 225.671 1012.84 225.671Z" fill="url(#paint0_linear_18085_180608)"/>
<path opacity="0.154" d="M1366 38.7691C1366 38.7691 1125.11 205.235 1084.47 235.005C1043.84 264.775 1015 261.426 988.85 262.078C962.705 262.73 569.626 262.078 569.626 262.078C569.626 262.078 537.801 264.686 499.988 253.013C462.175 241.34 154.694 158.108 154.694 158.108C154.694 158.108 117.254 147.45 78.8609 166.558C40.4678 185.667 -79.285 248.884 -117.914 266.395C-156.543 283.907 -172.355 279.5 -238.82 273.305C-305.285 267.11 -554.274 247.925 -554.274 247.925L-553.941 -0.404083L1366 0.0326538L1366 38.7691Z" fill="url(#paint1_linear_18085_180608)"/>
</g>
</g>
<defs>
<linearGradient id="paint0_linear_18085_180608" x1="363.161" y1="508.271" x2="364.747" y2="-147.088" gradientUnits="userSpaceOnUse">
<stop stop-color="#69E468" stop-opacity="0.7"/>
<stop offset="1" stop-color="#69E468" stop-opacity="0.8"/>
</linearGradient>
<linearGradient id="paint1_linear_18085_180608" x1="250.321" y1="208.694" x2="254.352" y2="-265.243" gradientUnits="userSpaceOnUse">
<stop stop-color="#00B563"/>
<stop offset="1" stop-color="#71E66F"/>
</linearGradient>
</defs>
</svg>
