<?xml version="1.0" encoding="utf-8"?>
<!-- Generator: Adobe Illustrator 24.1.0, SVG Export Plug-In . SVG Version: 6.00 Build 0)  -->
<svg version="1.1" id="Layer_1" xmlns="http://www.w3.org/2000/svg" xmlns:xlink="http://www.w3.org/1999/xlink" x="0px" y="0px"
	 viewBox="0 0 24 22" style="enable-background:new 0 0 24 22;" xml:space="preserve">
<g class="st0">
	<path class="st1" d="M23.6,12.8c0,2.2-0.6,4.2-1.6,5.9c-0.2,0.4-0.7,0.6-1.1,0.6H2.7c-0.5,0-0.9-0.2-1.1-0.6
		c-1-1.7-1.6-3.8-1.6-5.9C0,6.2,5.3,0.9,11.8,0.9C18.3,0.9,23.6,6.2,23.6,12.8z M21.7,12.8c0-5.4-4.4-9.8-9.8-9.8
		C6.4,2.9,2,7.3,2,12.8c0,1.6,0.4,3.2,1.1,4.6h17.4C21.3,15.9,21.7,14.4,21.7,12.8z M15.4,6.5l-1.9,5.6c0.6,0.5,0.9,1.2,0.9,2
		c0,0.5-0.1,0.9-0.4,1.3H9.6c-0.2-0.4-0.4-0.8-0.4-1.3c0-1.4,1.1-2.5,2.5-2.6l1.9-5.6c0.2-0.5,0.7-0.8,1.2-0.6
		C15.3,5.4,15.5,6,15.4,6.5z"/>
</g>
</svg>
