<svg width="175" height="30" viewBox="0 0 175 30" fill="none" xmlns="http://www.w3.org/2000/svg">
<g clip-path="url(#clip0_3245_53073)">
<path d="M12.0119 0L0.0400391 11.6901L8.92334 23.0684L14.8891 22.9678L20.8952 17.6056L17.9274 14.2757L13.1487 18.5412L11.0662 18.5815L6.01589 12.0926L13.8127 4.4668H22.535L30.4726 14.8994V7.54527L24.7282 0H12.0119Z" fill="#3D3D3D"/>
<path d="M15.6841 7.03219L9.67807 12.4044L12.6459 15.7143L17.4245 11.4588L19.497 11.4286L24.5573 17.9175L16.7404 25.5332H8.03823L0 14.9899V22.3441L5.83501 30H18.5614L30.4728 18.3501V18.2596L21.6499 6.92153L15.6841 7.03219Z" fill="#3D3D3D"/>
</g>
<path d="M48.4551 17.2832H51.375C51.3164 18.2402 51.0527 19.0898 50.584 19.832C50.1217 20.5742 49.474 21.1536 48.6406 21.5703C47.8138 21.987 46.8177 22.1953 45.6523 22.1953C44.7409 22.1953 43.9238 22.0391 43.2012 21.7266C42.4785 21.4076 41.86 20.9518 41.3457 20.3594C40.8379 19.7669 40.4505 19.0508 40.1836 18.2109C39.9167 17.3711 39.7832 16.4303 39.7832 15.3887V14.4023C39.7832 13.3607 39.9199 12.4199 40.1934 11.5801C40.4733 10.7337 40.8704 10.0143 41.3848 9.42188C41.9056 8.82943 42.5273 8.3737 43.25 8.05469C43.9727 7.73568 44.7799 7.57617 45.6719 7.57617C46.8568 7.57617 47.8561 7.79102 48.6699 8.2207C49.4902 8.65039 50.125 9.24284 50.5742 9.99805C51.0299 10.7533 51.3034 11.6126 51.3945 12.5762H48.4648C48.4323 12.0033 48.3184 11.5182 48.123 11.1211C47.9277 10.7174 47.6315 10.4147 47.2344 10.2129C46.8438 10.0046 46.3229 9.90039 45.6719 9.90039C45.1836 9.90039 44.7572 9.99154 44.3926 10.1738C44.028 10.3561 43.722 10.6328 43.4746 11.0039C43.2272 11.375 43.0417 11.8438 42.918 12.4102C42.8008 12.9701 42.7422 13.6276 42.7422 14.3828V15.3887C42.7422 16.1243 42.7975 16.7721 42.9082 17.332C43.0189 17.8854 43.1882 18.3542 43.416 18.7383C43.6504 19.1159 43.9499 19.4023 44.3145 19.5977C44.6855 19.7865 45.1315 19.8809 45.6523 19.8809C46.2643 19.8809 46.7689 19.7832 47.166 19.5879C47.5632 19.3926 47.8659 19.1029 48.0742 18.7188C48.2891 18.3346 48.416 17.8561 48.4551 17.2832ZM56.7266 19.7441L59.5586 7.78125H61.1406L61.502 9.77344L58.4844 22H56.7852L56.7266 19.7441ZM55.2715 7.78125L57.6152 19.7441L57.4199 22H55.5254L52.3711 7.78125H55.2715ZM63.9922 19.6953L66.3066 7.78125H69.207L66.0625 22H64.168L63.9922 19.6953ZM62.0293 7.78125L64.8809 19.793L64.8027 22H63.1035L60.0664 9.76367L60.457 7.78125H62.0293ZM85.2617 13.5723V15.8574H77.8398V13.5723H85.2617ZM78.709 7.78125V22H75.7793V7.78125H78.709ZM87.3516 7.78125V22H84.4316V7.78125H87.3516ZM89.9004 7.78125H95.2031C96.2904 7.78125 97.2246 7.94401 98.0059 8.26953C98.7936 8.59505 99.3991 9.07682 99.8223 9.71484C100.245 10.3529 100.457 11.1374 100.457 12.0684C100.457 12.8301 100.327 13.4844 100.066 14.0312C99.8125 14.5716 99.4512 15.0241 98.9824 15.3887C98.5202 15.7467 97.9766 16.0332 97.3516 16.248L96.4238 16.7363H91.8145L91.7949 14.4512H95.2227C95.737 14.4512 96.1634 14.36 96.502 14.1777C96.8405 13.9954 97.0944 13.7415 97.2637 13.416C97.4395 13.0905 97.5273 12.7129 97.5273 12.2832C97.5273 11.8275 97.4427 11.4336 97.2734 11.1016C97.1042 10.7695 96.847 10.5156 96.502 10.3398C96.1569 10.1641 95.724 10.0762 95.2031 10.0762H92.8301V22H89.9004V7.78125ZM97.8496 22L94.6074 15.6621L97.7031 15.6426L100.984 21.8633V22H97.8496ZM115.096 18.2793C115.096 18.0254 115.057 17.7975 114.979 17.5957C114.907 17.3874 114.77 17.1986 114.568 17.0293C114.367 16.8535 114.083 16.681 113.719 16.5117C113.354 16.3424 112.882 16.1667 112.303 15.9844C111.658 15.776 111.046 15.5417 110.467 15.2812C109.894 15.0208 109.386 14.7181 108.943 14.373C108.507 14.0215 108.162 13.6146 107.908 13.1523C107.661 12.6901 107.537 12.153 107.537 11.541C107.537 10.9486 107.667 10.4115 107.928 9.92969C108.188 9.44141 108.553 9.02474 109.021 8.67969C109.49 8.32812 110.044 8.05794 110.682 7.86914C111.326 7.68034 112.033 7.58594 112.801 7.58594C113.849 7.58594 114.764 7.77474 115.545 8.15234C116.326 8.52995 116.932 9.04753 117.361 9.70508C117.798 10.3626 118.016 11.1146 118.016 11.9609H115.105C115.105 11.5443 115.018 11.1797 114.842 10.8672C114.673 10.5482 114.412 10.2975 114.061 10.1152C113.715 9.93294 113.279 9.8418 112.752 9.8418C112.244 9.8418 111.821 9.91992 111.482 10.0762C111.144 10.2259 110.89 10.431 110.721 10.6914C110.551 10.9453 110.467 11.2318 110.467 11.5508C110.467 11.7917 110.525 12.0098 110.643 12.2051C110.766 12.4004 110.949 12.5827 111.189 12.752C111.43 12.9212 111.727 13.0807 112.078 13.2305C112.43 13.3802 112.837 13.5267 113.299 13.6699C114.074 13.9043 114.754 14.168 115.34 14.4609C115.932 14.7539 116.427 15.0827 116.824 15.4473C117.221 15.8118 117.521 16.2253 117.723 16.6875C117.924 17.1497 118.025 17.6738 118.025 18.2598C118.025 18.8783 117.905 19.4316 117.664 19.9199C117.423 20.4082 117.075 20.8216 116.619 21.1602C116.163 21.4987 115.62 21.7559 114.988 21.9316C114.357 22.1074 113.65 22.1953 112.869 22.1953C112.166 22.1953 111.473 22.1042 110.789 21.9219C110.105 21.7331 109.484 21.4499 108.924 21.0723C108.37 20.6947 107.928 20.2129 107.596 19.627C107.264 19.041 107.098 18.3477 107.098 17.5469H110.037C110.037 17.9896 110.105 18.3639 110.242 18.6699C110.379 18.9759 110.571 19.2233 110.818 19.4121C111.072 19.6009 111.372 19.7376 111.717 19.8223C112.068 19.9069 112.452 19.9492 112.869 19.9492C113.377 19.9492 113.794 19.8776 114.119 19.7344C114.451 19.5911 114.695 19.3926 114.852 19.1387C115.014 18.8848 115.096 18.5983 115.096 18.2793ZM122.977 20.8086L125.779 11.4336H128.797L124.549 23.5918C124.458 23.8587 124.334 24.1452 124.178 24.4512C124.028 24.7572 123.823 25.0469 123.562 25.3203C123.309 25.6003 122.986 25.8281 122.596 26.0039C122.212 26.1797 121.74 26.2676 121.18 26.2676C120.913 26.2676 120.695 26.2513 120.525 26.2188C120.356 26.1862 120.154 26.1406 119.92 26.082V24.0215C119.992 24.0215 120.066 24.0215 120.145 24.0215C120.223 24.028 120.298 24.0312 120.369 24.0312C120.74 24.0312 121.043 23.9889 121.277 23.9043C121.512 23.8197 121.701 23.6895 121.844 23.5137C121.987 23.3444 122.101 23.123 122.186 22.8496L122.977 20.8086ZM121.805 11.4336L124.1 19.0898L124.5 22.0684L122.586 22.2734L118.787 11.4336H121.805ZM135.633 19.0801C135.633 18.8783 135.574 18.696 135.457 18.5332C135.34 18.3704 135.122 18.2207 134.803 18.084C134.49 17.9408 134.038 17.8105 133.445 17.6934C132.911 17.5762 132.413 17.4297 131.951 17.2539C131.495 17.0716 131.098 16.8535 130.76 16.5996C130.428 16.3457 130.167 16.0462 129.979 15.7012C129.79 15.3496 129.695 14.9492 129.695 14.5C129.695 14.0573 129.79 13.6406 129.979 13.25C130.174 12.8594 130.451 12.5143 130.809 12.2148C131.173 11.9089 131.616 11.6712 132.137 11.502C132.664 11.3262 133.257 11.2383 133.914 11.2383C134.832 11.2383 135.62 11.3848 136.277 11.6777C136.941 11.9707 137.449 12.3743 137.801 12.8887C138.159 13.3965 138.338 13.9759 138.338 14.627H135.525C135.525 14.3535 135.467 14.1094 135.35 13.8945C135.239 13.6732 135.063 13.5007 134.822 13.377C134.588 13.2467 134.282 13.1816 133.904 13.1816C133.592 13.1816 133.322 13.237 133.094 13.3477C132.866 13.4518 132.69 13.5951 132.566 13.7773C132.449 13.9531 132.391 14.1484 132.391 14.3633C132.391 14.526 132.423 14.6725 132.488 14.8027C132.56 14.9264 132.674 15.0404 132.83 15.1445C132.986 15.2487 133.188 15.3464 133.436 15.4375C133.689 15.5221 134.002 15.6003 134.373 15.6719C135.135 15.8281 135.815 16.0332 136.414 16.2871C137.013 16.5345 137.488 16.873 137.84 17.3027C138.191 17.7259 138.367 18.2826 138.367 18.9727C138.367 19.4414 138.263 19.8711 138.055 20.2617C137.846 20.6523 137.547 20.9941 137.156 21.2871C136.766 21.5736 136.297 21.7982 135.75 21.9609C135.21 22.1172 134.601 22.1953 133.924 22.1953C132.941 22.1953 132.107 22.0195 131.424 21.668C130.747 21.3164 130.232 20.8704 129.881 20.3301C129.536 19.7832 129.363 19.2233 129.363 18.6504H132.029C132.042 19.0345 132.14 19.3438 132.322 19.5781C132.511 19.8125 132.749 19.9818 133.035 20.0859C133.328 20.1901 133.644 20.2422 133.982 20.2422C134.347 20.2422 134.65 20.1934 134.891 20.0957C135.132 19.9915 135.314 19.8548 135.438 19.6855C135.568 19.5098 135.633 19.3079 135.633 19.0801ZM145.369 11.4336V13.4258H139.217V11.4336H145.369ZM140.74 8.82617H143.553V18.8164C143.553 19.1224 143.592 19.3568 143.67 19.5195C143.755 19.6823 143.878 19.7962 144.041 19.8613C144.204 19.9199 144.409 19.9492 144.656 19.9492C144.832 19.9492 144.988 19.9427 145.125 19.9297C145.268 19.9102 145.389 19.8906 145.486 19.8711L145.496 21.9414C145.255 22.0195 144.995 22.0814 144.715 22.127C144.435 22.1725 144.126 22.1953 143.787 22.1953C143.169 22.1953 142.628 22.0944 142.166 21.8926C141.71 21.6842 141.359 21.3522 141.111 20.8965C140.864 20.4408 140.74 19.8418 140.74 19.0996V8.82617ZM151.834 22.1953C151.014 22.1953 150.278 22.0651 149.627 21.8047C148.976 21.5378 148.423 21.1699 147.967 20.7012C147.518 20.2324 147.173 19.6888 146.932 19.0703C146.691 18.4453 146.57 17.7812 146.57 17.0781V16.6875C146.57 15.8867 146.684 15.1543 146.912 14.4902C147.14 13.8262 147.465 13.25 147.889 12.7617C148.318 12.2734 148.839 11.8991 149.451 11.6387C150.063 11.3717 150.753 11.2383 151.521 11.2383C152.27 11.2383 152.934 11.362 153.514 11.6094C154.093 11.8568 154.578 12.2083 154.969 12.6641C155.366 13.1198 155.665 13.6667 155.867 14.3047C156.069 14.9362 156.17 15.6393 156.17 16.4141V17.5859H147.771V15.7109H153.406V15.4961C153.406 15.1055 153.335 14.7572 153.191 14.4512C153.055 14.1387 152.846 13.8913 152.566 13.709C152.286 13.5267 151.928 13.4355 151.492 13.4355C151.121 13.4355 150.802 13.5169 150.535 13.6797C150.268 13.8424 150.05 14.0703 149.881 14.3633C149.718 14.6562 149.594 15.0013 149.51 15.3984C149.432 15.7891 149.393 16.2188 149.393 16.6875V17.0781C149.393 17.5013 149.451 17.8919 149.568 18.25C149.692 18.6081 149.865 18.9173 150.086 19.1777C150.314 19.4382 150.587 19.64 150.906 19.7832C151.232 19.9264 151.6 19.998 152.01 19.998C152.518 19.998 152.99 19.9004 153.426 19.7051C153.868 19.5033 154.249 19.2005 154.568 18.7969L155.936 20.2812C155.714 20.6003 155.411 20.9062 155.027 21.1992C154.65 21.4922 154.194 21.7331 153.66 21.9219C153.126 22.1042 152.518 22.1953 151.834 22.1953ZM160.584 13.6211V22H157.762V11.4336H160.408L160.584 13.6211ZM160.193 16.3457H159.412C159.412 15.61 159.5 14.9329 159.676 14.3145C159.858 13.6895 160.122 13.1491 160.467 12.6934C160.818 12.2311 161.251 11.873 161.766 11.6191C162.28 11.3652 162.876 11.2383 163.553 11.2383C164.021 11.2383 164.451 11.3099 164.842 11.4531C165.232 11.5898 165.568 11.8079 165.848 12.1074C166.134 12.4004 166.355 12.7845 166.512 13.2598C166.668 13.7285 166.746 14.2917 166.746 14.9492V22H163.934V15.2617C163.934 14.7799 163.868 14.4089 163.738 14.1484C163.608 13.888 163.423 13.7057 163.182 13.6016C162.947 13.4974 162.664 13.4453 162.332 13.4453C161.967 13.4453 161.648 13.5202 161.375 13.6699C161.108 13.8197 160.887 14.028 160.711 14.2949C160.535 14.5553 160.405 14.8613 160.32 15.2129C160.236 15.5645 160.193 15.9421 160.193 16.3457ZM166.482 16.0234L165.477 16.1504C165.477 15.4603 165.561 14.819 165.73 14.2266C165.906 13.6341 166.163 13.1133 166.502 12.6641C166.847 12.2148 167.273 11.8665 167.781 11.6191C168.289 11.3652 168.875 11.2383 169.539 11.2383C170.047 11.2383 170.509 11.3132 170.926 11.4629C171.342 11.6061 171.697 11.8372 171.99 12.1562C172.29 12.4688 172.518 12.8789 172.674 13.3867C172.837 13.8945 172.918 14.5163 172.918 15.252V22H170.096V15.252C170.096 14.7637 170.031 14.3926 169.9 14.1387C169.777 13.8783 169.594 13.6992 169.354 13.6016C169.119 13.4974 168.839 13.4453 168.514 13.4453C168.175 13.4453 167.879 13.5137 167.625 13.6504C167.371 13.7806 167.16 13.9629 166.99 14.1973C166.821 14.4316 166.694 14.7051 166.609 15.0176C166.525 15.3236 166.482 15.6589 166.482 16.0234Z" fill="#323130"/>
<defs>
<clipPath id="clip0_3245_53073">
<rect width="30.4728" height="30" fill="white"/>
</clipPath>
</defs>
</svg>
