<?xml version="1.0" encoding="utf-8"?>
<!-- Generator: Adobe Illustrator 24.1.0, SVG Export Plug-In . SVG Version: 6.00 Build 0)  -->
<svg version="1.1" id="Layer_1" xmlns="http://www.w3.org/2000/svg" xmlns:xlink="http://www.w3.org/1999/xlink" x="0px" y="0px"
	 viewBox="0 0 21 22" style="enable-background:new 0 0 21 22;" xml:space="preserve">
<g class="st0">
	<path class="st1" d="M20.7,11.1c0,5.6-4.6,10.2-10.2,10.2S0.3,16.7,0.3,11.1C0.3,5.5,4.9,1,10.5,1S20.7,5.5,20.7,11.1z M18.7,11.1
		c0-4.5-3.7-8.2-8.2-8.2c-4.5,0-8.2,3.7-8.2,8.2c0,4.5,3.7,8.2,8.2,8.2C15,19.3,18.7,15.7,18.7,11.1z M12.3,16.4H8.7
		c-0.3,0-0.5-0.2-0.5-0.5v-1c0-0.3,0.2-0.5,0.5-0.5h0.5v-2.6H8.7c-0.3,0-0.5-0.2-0.5-0.5v-1c0-0.3,0.2-0.5,0.5-0.5h2.6
		c0.3,0,0.5,0.2,0.5,0.5v4.1h0.5c0.3,0,0.5,0.2,0.5,0.5v1C12.8,16.2,12.6,16.4,12.3,16.4z M12.2,7.2c0,1-0.8,1.7-1.7,1.7
		S8.8,8.1,8.8,7.2s0.8-1.7,1.7-1.7S12.2,6.2,12.2,7.2z"/>
</g>
</svg>
