

<svg xmlns="http://www.w3.org/2000/svg" xmlns:xlink="http://www.w3.org/1999/xlink" width="348" height="366" viewBox="50 0 550 600">
<style type="text/css">
	.st0{fill:#0B0204;}
	.st1{fill:#0C2749;}
	.st2{fill:#29B473;}
	.st3{fill:#FFFFFF;}
	.st4{fill:#FAB16A;}
	.st5{fill:#F27043;}
	.st6{fill:#5F318D;}
	.st7{fill:#84CEF2;}
	.st8{fill:none;}
	.st9{fill:#E07E27;}
	.st10{fill:#0A183D;}
	.st11{fill:#E11D37;}
	.st12{fill:#C22035;}
	.st13{fill:#15254B;}
	.st14{fill:#E21E36;}
	.st15{fill:#E9AC6A;}
	.st16{fill:#E8AB6A;}
	.st17{fill:#DA7F27;}
	.st18{fill:#41B983;}
	.st19{fill:#2A374B;}
	.st20{fill:#67C08B;}
	.st21{fill:#16254C;}
	.st22{fill-rule:evenodd;clip-rule:evenodd;fill:#67C08B;}
	.st23{fill-rule:evenodd;clip-rule:evenodd;fill:#0C2749;}
	.st24{fill-rule:evenodd;clip-rule:evenodd;fill:#30495C;}
	.st25{fill-rule:evenodd;clip-rule:evenodd;fill:#FAB16A;}
	.st26{fill-rule:evenodd;clip-rule:evenodd;fill:#DA7F27;}
	.st27{fill-rule:evenodd;clip-rule:evenodd;fill:#F27043;}
</style>
<g>
	<g>
		<circle class="st3" cx="243.58" cy="151.81" r="94.01"/>
		<g>
			<polygon class="st11" points="187.82,117.3 196.22,190.16 243.67,215.99 243.67,97.56 			"/>
			<polygon class="st12" points="299.52,117.3 291.12,190.16 243.67,215.99 243.67,97.56 			"/>
			<path class="st3" d="M265.72,187.22h13.75l-35.8-77.9l-35.8,77.9h13.75l7.11-16.8h29.87L265.72,187.22z M233.54,159.08
				l10.13-23.94l10.13,23.94H233.54z"/>
		</g>
	</g>
	<g>
		<polygon class="st0" points="391.24,259.99 360.91,290.31 386.9,300.71 418.96,267.79 418.96,226.2 391.24,226.2 		"/>
		<path class="st13" d="M327.32,433.45c-7.56,0-14.83-4.16-18.46-11.37c-5.12-10.19-1.02-22.6,9.17-27.72
			c11.94-6,29.18-17.21,43.54-36.51c16.02-21.54,21.57-43.72,23.41-58.54c1.4-11.32,11.72-19.35,23.02-17.95
			c11.32,1.4,19.35,11.71,17.95,23.02c-2.44,19.75-9.85,49.34-31.25,78.11c-15.19,20.41-35.28,37.27-58.12,48.76
			C333.6,432.74,330.44,433.45,327.32,433.45z"/>
		<path class="st14" d="M476.97,435.48l-79.71,9.53l-15.74-120.8c-5.38-33.91,20.82-64.6,55.16-64.6h0
			c34.34,0,60.54,30.69,55.16,64.6L476.97,435.48z"/>
		<path class="st13" d="M510.74,314.13c-22.81,0-41.64-9-48.52-12.78c-10-5.48-13.65-18.03-8.17-28.03
			c5.49-10,18.03-13.65,28.03-8.17c4.12,2.26,25.64,13.08,44.86,4.26c8.83-4.06,13.81-10.6,16.78-14.51
			c16.01-21.05,13.31-48.52,11.4-59.36c-1.97-11.23,5.53-21.93,16.76-23.91c11.23-1.97,21.93,5.53,23.91,16.76
			c2.84,16.18,6.67,57.48-19.21,91.5c-4.25,5.59-14.2,18.67-32.41,27.03C532.7,312.21,521.29,314.13,510.74,314.13z"/>
		<polygon class="st14" points="552.52,126.48 550.92,210.13 607.23,202.89 579.74,120.18 		"/>
		<path class="st15" d="M488.05,676.36c-1.89,0-3.8-0.43-5.6-1.35c-6.1-3.1-8.53-10.55-5.43-16.65l52.29-102.95
			c3.1-6.1,10.55-8.53,16.65-5.43c6.1,3.1,8.53,10.55,5.43,16.65L499.1,669.58C496.92,673.88,492.57,676.36,488.05,676.36z"/>
		<path class="st16" d="M476.22,663.24c-0.43,7.3,5.43,13.44,12.75,13.35l4.79-0.06l43.14-0.54c3.74-0.04,7.01-2.78,7.6-6.59
			c0.66-4.25-2.25-8.23-6.5-8.89l-22.95-4.01l-23.7-4.87C483.82,650.07,476.67,655.56,476.22,663.24L476.22,663.24z"/>
		<path class="st15" d="M160.57,676.36c-2.91,0-5.83-1.02-8.19-3.1c-5.13-4.52-5.62-12.35-1.1-17.48l98.2-111.39
			c4.52-5.13,12.35-5.62,17.48-1.1c5.13,4.52,5.62,12.35,1.1,17.48l-98.2,111.39C167.41,674.94,164,676.36,160.57,676.36z"/>
		<path class="st16" d="M173.02,663.24c0.43,7.3-5.43,13.44-12.75,13.35l-4.79-0.06l-43.14-0.54c-3.74-0.04-7.01-2.78-7.6-6.59
			c-0.66-4.25,2.25-8.23,6.5-8.89l22.95-4.01l23.7-4.87C165.43,650.07,172.57,655.56,173.02,663.24L173.02,663.24z"/>
		<path class="st0" d="M458.04,462.35l-70.68,80.53c-0.14,0.16-0.27,0.34-0.39,0.53l-56.06,94.26c-0.64,1.08-1.8,1.74-3.05,1.75
			l-217.88,1.66c-3.2,0.02-4.82-3.85-2.55-6.11l115.49-115.14c0.29-0.29,0.62-0.52,0.99-0.7l175.84-83.45
			c0.89-0.42,1.91-0.46,2.83-0.1l54.07,21.08C458.96,457.56,459.68,460.49,458.04,462.35z"/>
		<path class="st0" d="M466.48,418.97l116.28,101.91c1.08,0.95,1.49,2.45,1.04,3.81l-37.97,114.77c-0.49,1.47-1.87,2.46-3.41,2.45
			l-137.36-0.74c-2.51-0.01-4.22-2.54-3.31-4.87l38.17-98.24c0.22-0.57,0.29-1.19,0.21-1.79l-14.64-104.56
			c-0.25-1.78,0.87-3.47,2.6-3.95l35.11-9.56C464.34,417.89,465.57,418.17,466.48,418.97z"/>
		<path class="st1" d="M389.47,406.87l93.57-9.19l-4.09,33.09c-2.62,21.22-20.36,37.35-41.74,37.94h0
			c-21.86,0.61-40.74-15.2-43.99-36.83L389.47,406.87z"/>
		<g>
			<path class="st1" d="M546.72,461.96l-48.29,41.67c-1.36,1.18-3.45,0.88-4.44-0.62l-45.78-69.73c-0.92-1.4-0.51-3.28,0.91-4.16
				l26.34-16.44c0.99-0.62,2.24-0.6,3.21,0.04l67.74,44.5C548.06,458.3,548.22,460.67,546.72,461.96z"/>
			<path class="st1" d="M341.93,480.25l-19.7-17.93c-1.56-1.42-1.19-3.98,0.72-4.89l75.96-36.38c1.13-0.54,2.48-0.32,3.38,0.56
				l19.92,19.62c1.49,1.47,1.05,3.97-0.86,4.84l-76.17,34.69C344.08,481.26,342.81,481.06,341.93,480.25z"/>
			<path class="st1" d="M361.44,478.32l52.75-41.64c0.29-0.23,0.63-0.41,0.98-0.51l46.8-14.16c1.79-0.54,3.63,0.68,3.83,2.54
				l8.68,82.09c0.22,2.05-1.66,3.7-3.67,3.21l-108.23-26.3C360.17,482.97,359.49,479.86,361.44,478.32z"/>
		</g>
		<g>
			<path class="st14" d="M448.64,170.12l30.59-17.39c6.71-3.82,15.1-3.04,20.99,1.95v0c7.26,6.14,18,5.74,24.79-0.91l13.56-13.3
				l5.81,8.96l-18.81,16.55c-7.09,6.24-17.75,6.1-24.68-0.32l-2.52-2.34c-4.97-4.61-12.07-6.11-18.48-3.91L448.64,170.12z"/>
			<path class="st14" d="M449.11,169.86l29.62-3.63c5.66-0.69,11.33,1.28,15.34,5.34l5.78,5.85c5.7,5.77,14.51,7.13,21.68,3.35
				l19.64-10.35l5.71,10.26l-27.32,12.6c-7.67,3.54-16.77,1.4-22.06-5.18l-7.16-8.9c-3.14-3.9-7.72-6.35-12.7-6.8L449.11,169.86z"/>
			<path class="st0" d="M409.43,259.98l41.59,36.39l45.73-30.05l-21.86-12.77c-5.12-2.99-8.27-8.48-8.27-14.41v-24.21h-57.18V259.98
				z"/>
			<path class="st1" d="M390.8,198.46v44.19c0,9.57,7.75,17.33,17.32,17.33h15.6c23.93,0,43.32-19.4,43.32-43.32v-44.19
				c0-9.57-7.76-17.32-17.33-17.32h-15.6C410.2,155.15,390.8,174.53,390.8,198.46z"/>
			<path class="st15" d="M447.25,214.58v-2.78c0-17.89-14.51-32.4-32.4-32.4h0c-7.45,0-14.31,2.52-19.79,6.75
				c-1.16,3.9-1.79,8.03-1.79,12.31v40.29c5.73,5.12,13.28,8.23,21.57,8.23h0C432.74,246.98,447.25,232.47,447.25,214.58z"/>
			<path class="st3" d="M414.52,233.38l-0.39-3.1c0.21-0.03,0.43-0.05,0.67-0.08c1.97-0.22,4.67-0.52,7.54-3.07
				c1.92-1.7,3.24-4.18,3.61-6.78l3.09,0.44c-0.47,3.33-2.16,6.5-4.63,8.68c-3.62,3.21-7.02,3.58-9.27,3.83L414.52,233.38z"/>
			<g>
				<defs>
					<path id="SVGID_1_" d="M444.77,214.58v-2.78c0-17.89-14.51-32.4-32.4-32.4h0c-7.45,0-14.31,2.52-19.79,6.75
						c-1.16,3.9-1.79,8.03-1.79,12.31v40.29c5.73,5.12,13.28,8.23,21.57,8.23h0C430.27,246.98,444.77,232.47,444.77,214.58z"/>
				</defs>
				<clipPath id="SVGID_2_">
					<use xlink:href="#SVGID_1_"  style="overflow:visible;"/>
				</clipPath>
			</g>
			<path class="st8" d="M449.72,204.09c0-21.99-16.39-40.14-37.62-42.93c-12.75,7.54-21.3,21.42-21.3,37.3v44.19
				c0,0.64,0.04,1.28,0.11,1.9c4.81,1.84,10.03,2.86,15.49,2.86C430.32,247.41,449.72,228.02,449.72,204.09z"/>
			<polygon class="st17" points="396.7,221.86 412.29,221.86 412.29,195 			"/>
			<rect x="392.88" y="188.93" class="st13" width="72.87" height="3.47"/>
			<rect x="390.8" y="204.53" class="st13" width="74.94" height="3.47"/>
			<rect x="390.8" y="235.72" class="st13" width="60.21" height="3.47"/>
			<rect x="390.8" y="220.12" class="st13" width="74.94" height="3.47"/>
			<path class="st3" d="M434.69,201.44h-3.55c-1.39,0-2.52-1.13-2.52-2.52v-0.17c0-1.39,1.13-2.52,2.52-2.52h3.55
				c1.39,0,2.52,1.13,2.52,2.52v0.17C437.21,200.31,436.08,201.44,434.69,201.44z"/>
			<path class="st3" d="M399.34,201.44h-3.55c-1.39,0-2.52-1.13-2.52-2.52v-0.17c0-1.39,1.13-2.52,2.52-2.52h3.55
				c1.39,0,2.52,1.13,2.52,2.52v0.17C401.86,200.31,400.73,201.44,399.34,201.44z"/>
			<circle cx="429.83" cy="198.77" r="2.64"/>
			<circle cx="395.03" cy="198.77" r="2.64"/>
		</g>
		<g>
			<path class="st15" d="M519.34,97.75l-55.57-17.96L313,43.65L203.85,17.76c-2.03-0.48-4.08,0.75-4.61,2.77l0,0
				c-0.53,2.01,0.64,4.08,2.64,4.67l107.69,31.52l149.11,42.49l57.23,11.62L519.34,97.75z"/>
			<path class="st0" d="M301.24,52.58l2.47-9.41c0.39-1.47,1.89-2.35,3.36-1.96l6.18,1.62c1.47,0.39,2.35,1.89,1.96,3.36l-2.47,9.41
				c-0.39,1.47-1.89,2.35-3.36,1.96l-6.18-1.62C301.73,55.55,300.86,54.05,301.24,52.58z"/>
			<path class="st0" d="M198.29,23.01l1.38-5.26c0.33-1.25,1.61-2,2.86-1.67l6.25,1.64c1.25,0.33,2,1.61,1.67,2.86l-1.38,5.26
				c-0.33,1.25-1.61,2-2.86,1.67l-6.25-1.64C198.71,25.55,197.96,24.27,198.29,23.01z"/>
			<polygon class="st0" points="620.31,142.75 625.97,121.17 519.02,97.64 515.58,110.77 			"/>
			<path class="st0" d="M503.34,128.1l13.3-50.73c0.31-1.19,1.53-1.9,2.72-1.59l5,1.31c1.19,0.31,1.9,1.53,1.59,2.72l-13.3,50.73
				c-0.31,1.19-1.53,1.9-2.72,1.59l-5-1.31C503.74,130.51,503.02,129.29,503.34,128.1z"/>
		</g>
		<path class="st14" d="M582.47,97.5l-18.48-3.52c-5.81-1.11-11.03,3.73-10.38,9.61l0.72,6.4c0.51,4.59,4.08,8.24,8.65,8.88
			l13.79,1.9c4.99,0.69,9.72-2.4,11.09-7.25l1.42-4.99C590.69,103.57,587.54,98.46,582.47,97.5z"/>
		<path class="st14" d="M562.52,140.97l-11.96-8.69c-4.41-3.2-6.62-8.63-5.7-14.01l2.98-17.5c0.39-2.28,3.08-3.32,4.9-1.88l1.64,1.3
			c0.58,0.46,0.98,1.12,1.11,1.85L562.52,140.97z"/>
		<polygon class="st14" points="270.35,426.24 336.54,375.06 364.31,424.57 281.53,451.84 		"/>
		<g>
			<path class="st15" d="M231.31,386.87l-34.64-47.02l-82.04-131.56L55.5,112.96c-1.1-1.78-0.58-4.1,1.16-5.25h0
				c1.74-1.14,4.08-0.68,5.26,1.03l64.01,92.16l87.53,127.97l29.15,50.61L231.31,386.87z"/>
			<path class="st0" d="M119.38,194.31l-8.15,5.32c-1.27,0.83-1.63,2.53-0.8,3.81l3.49,5.34c0.83,1.27,2.53,1.63,3.81,0.8l8.15-5.32
				c1.27-0.83,1.63-2.53,0.8-3.81l-3.49-5.34C122.35,193.84,120.65,193.48,119.38,194.31z"/>
			<path class="st0" d="M58.73,106.02L54.17,109c-1.08,0.71-1.39,2.16-0.68,3.24l3.53,5.41c0.71,1.08,2.16,1.39,3.24,0.68l4.56-2.98
				c1.08-0.71,1.39-2.16,0.68-3.24l-3.53-5.41C61.26,105.62,59.81,105.31,58.73,106.02z"/>
			<polygon class="st0" points="305.97,468.4 287.29,480.6 231.1,386.6 242.46,379.18 			"/>
			<path class="st0" d="M255.02,362.08l-43.9,28.69c-1.03,0.67-1.32,2.05-0.65,3.08l2.83,4.33c0.67,1.03,2.05,1.32,3.08,0.65
				l43.9-28.69c1.03-0.67,1.32-2.05,0.65-3.08l-2.83-4.33C257.43,361.7,256.05,361.41,255.02,362.08z"/>
		</g>
		<path class="st14" d="M257.29,462.04l-9.19-16.42c-2.89-5.16,0.04-11.65,5.83-12.89l6.3-1.35c4.52-0.97,9.11,1.26,11.16,5.4
			l6.17,12.48c2.23,4.51,0.8,9.98-3.36,12.82l-4.29,2.92C265.65,467.92,259.81,466.54,257.29,462.04z"/>
		<path class="st14" d="M292.2,429.35l-12.03-8.59c-4.44-3.17-10.28-3.55-15.09-0.97l-15.66,8.37c-2.04,1.09-2.17,3.97-0.23,5.24
			l1.75,1.14c0.62,0.41,1.37,0.57,2.1,0.47L292.2,429.35z"/>
	</g>
</g>
</svg>
