<?xml version="1.0" encoding="utf-8"?>
<!-- Generator: Adobe Illustrator 24.1.0, SVG Export Plug-In . SVG Version: 6.00 Build 0)  -->
<svg version="1.1" id="Layer_1" xmlns="http://www.w3.org/2000/svg" xmlns:xlink="http://www.w3.org/1999/xlink" x="0px" y="0px"
	 viewBox="0 0 21 22" style="enable-background:new 0 0 21 22;" xml:space="preserve">
<g class="st0">
	<path class="st1" d="M18.4,5.2v14.4c0,1.1-0.9,2-2,2H2c-1.1,0-2-0.9-2-2V5.2c0-1.1,0.9-2,2-2h2V1.1c0-0.3,0.2-0.5,0.5-0.5h1.6
		c0.3,0,0.5,0.2,0.5,0.5v2.1h5.2V1.1c0-0.3,0.2-0.5,0.5-0.5h1.6c0.3,0,0.5,0.2,0.5,0.5v2.1h2C17.5,3.2,18.4,4.1,18.4,5.2z
		 M16.4,19.4V7.2H2v12.2c0,0.1,0.1,0.2,0.2,0.2h13.9C16.3,19.7,16.4,19.5,16.4,19.4z"/>
</g>
</svg>
